<?xml version="1.0" encoding="UTF-8"?>
<svg id="Layer_1" data-name="Layer 1" xmlns="http://www.w3.org/2000/svg" viewBox="0 0 5062 5339">
  <defs>
    <style>
      .cls-1 {
        fill-rule: evenodd;
      }

      .cls-1, .cls-2 {
        fill: #295ba2;
      }
    </style>
  </defs>
  <path class="cls-1" d="M2445.58,1854.49c366.46,46.02,565.88,200.04,639.65,372.15,30.08,70.23,39.15,143.39,30.08,213.22-9.07,69.82-36.19,136.3-78.68,192.95-43.87,58.62-104.46,106.8-178.6,137.3-409.53-118.4-704.19-485.44-727.97-915.62v-112.5c23.82-430.56,319.05-798,729.35-916.02,30.5,12.58,58.62,28.33,84.17,46.43,62.35,44.07,110.14,103.46,139.84,170.34,29.5,66.48,41.3,140.64,31.85,215.19-14.18,113.48-77.91,228.37-202.19,318.65-59.59,43.28-132.96,81.04-221.09,110.35-75.34,25.18-161.7,44.45-259.62,55.86-69.04,2.36-75.91,111.72,12.98,111.72l.23-.02ZM2849.38,1854.49h7.49c366.46,46.02,565.88,200.04,639.65,372.15,30.08,70.23,39.15,143.39,30.08,213.22-9.07,69.82-36.19,136.3-78.68,192.95-86.36,115.06-236.61,189.82-428,170.34,40.11-30.29,75.14-65.69,104.26-104.65,53.71-71.8,88.32-156.18,99.73-244.7,11.41-88.51,0-181.35-37.76-269.86-54.28-127.07-163.04-245.49-336.54-329.27l-.23-.17ZM3019.72,792.53c135.11-13.77,249.4,18.88,335.15,79.66,62.35,44.07,110.14,103.46,139.84,170.34,29.5,66.29,41.3,140.64,31.85,215.19-14.18,113.7-77.91,228.37-202.19,318.65-59.59,43.28-132.96,81.04-220.9,110.35-74.53,24.97-159.93,43.87-256.47,55.47,48.6-23.2,91.86-49.17,130.43-77.1,151.25-109.95,228.97-251.96,246.64-394.18,11.79-94.22-3.15-188.44-40.91-273.01-35.42-79.47-91.09-150.67-163.66-205.36l.23-.02ZM3116.11,1797.64c7.49-2.36,14.94-4.73,22.24-7.28,99.54-33.25,182.52-76.12,250.59-125.49,151.25-109.95,228.97-251.96,246.64-394.18,11.79-94.22-3.15-188.44-40.91-273.01-37.38-84.19-97.77-158.93-176.83-214.98-112.91-80.06-263.77-120.98-439.99-95.6v-.19c-39.15,5.7-77.49,13.37-115.25,23.01-86.94-28.91-186.48-38.74-296.04-22.82v-.19c-548.4,79.27-960.08,551.73-960.08,1110.74s399.5,1015.15,930.77,1106.22c7.68,1.38,15.94,2.36,24.59,2.96,110.95,16.71,211.64,7.28,299.58-21.63,28.74,7.28,57.63,13.58,87.32,18.69,7.68,1.38,15.94,2.36,24.59,2.96,250.21,37.96,448.87-57.84,562.35-208.89,53.71-71.8,88.13-156.18,99.73-244.7,11.41-88.51,0-181.35-37.76-269.86-68.08-159.32-221.86-304.88-481.33-385.92l-.19.17Z"/>
  <g>
    <path class="cls-2" d="M1164.32,3515.36c0,43.39-10.86,82.09-32.55,116.1-21.69,34.02-56.19,60.89-103.51,80.6,57.17,18.73,99.82,47.33,127.91,85.79,28.1,38.45,42.16,83.32,42.16,134.58,0,92.68-33.28,160.95-99.83,204.82-66.55,43.87-161.94,65.81-286.16,65.81-38.47,0-79.14-1.98-122.02-5.91-42.9-3.96-82.58-11.35-119.05-22.19-45.35-12.81-68.03-38.94-68.03-78.38v-739.46c0-16.75,4.68-29.83,14.05-39.19,9.37-9.37,22.42-16.5,39.19-21.43,33.52-10.84,70.73-18.25,111.65-22.19,40.92-3.93,85.05-5.91,132.38-5.91,115.34,0,204.82,20.23,268.42,60.64,63.58,40.42,95.39,102.54,95.39,186.32ZM658.53,3661.77h175.98c56.19,0,98.59-12.32,127.19-36.96,28.58-24.64,42.88-58.18,42.88-100.57,0-86.76-68.03-130.15-204.08-130.15-28.6,0-54.74.99-78.4,2.97s-44.85,4.43-63.58,7.38v257.32ZM1037.14,3927.99c0-45.35-16.77-81.1-50.29-107.24-33.54-26.12-81.84-39.19-144.93-39.19h-183.39v281.01c20.69,4.93,45.33,8.63,73.93,11.09,28.6,2.47,57.18,3.69,85.79,3.69,69.99,0,123.97-12.07,161.94-36.24,37.97-24.15,56.95-61.87,56.95-113.13Z"/>
    <path class="cls-2" d="M1369.81,3494.67c6.9-1.98,16.75-4.2,29.57-6.66,12.81-2.45,26.6-3.69,41.41-3.69,28.58,0,49.53,5.42,62.84,16.26,13.31,10.84,19.97,29.57,19.97,56.19v365.3c0,57.2,15.02,97.87,45.1,122.02,30.08,24.15,71.74,36.22,124.98,36.22,34.51,0,63.6-3.44,87.26-10.36,23.67-6.9,42.4-14.28,56.19-22.17v-553.11c7.89-1.98,17.99-4.2,30.31-6.66,12.32-2.45,25.88-3.69,40.67-3.69,28.6,0,49.8,5.42,63.6,16.26,13.8,10.84,20.71,29.57,20.71,56.19v498.4c0,21.7-3.46,39.46-10.36,53.26-6.92,13.8-20.71,27.11-41.41,39.91-25.65,14.8-59.42,28.12-101.31,39.95-41.89,11.82-90.95,17.74-147.15,17.74-101.55,0-180.67-22.42-237.37-67.29s-85.03-116.1-85.03-213.72v-430.35Z"/>
    <path class="cls-2" d="M2648.98,4120.24c-18.73,11.83-41.66,21.69-68.77,29.57-27.12,7.89-59.42,11.83-96.88,11.83-43.37,0-84.54-6.16-123.48-18.48-38.94-12.32-73.21-32.04-102.79-59.17-29.57-27.11-52.99-62.35-70.24-105.74-17.25-43.37-25.88-96.61-25.88-159.72,0-57.17,8.63-107.2,25.88-150.1,17.25-42.88,41.41-78.87,72.46-107.96s68.03-51.02,110.93-65.81c42.88-14.79,90.45-22.19,142.72-22.19,48.31,0,92.9,6.18,133.82,18.5s74.19,26.87,99.83,43.62c16.75,10.84,29.83,23.18,39.19,36.98,9.37,13.8,14.05,30.56,14.05,50.27v582.69c0,49.3-8.63,91.69-25.88,127.19-17.25,35.48-40.9,64.32-70.98,86.52-30.08,22.17-65.81,38.44-107.22,48.81-41.43,10.34-85.79,15.53-133.1,15.53-50.29,0-93.67-4.93-130.15-14.79-36.49-9.89-63.11-19.74-79.86-29.59-30.56-18.73-45.84-43.39-45.84-73.93,0-16.77,3.44-30.82,10.34-42.15,6.9-11.36,15.78-20.48,26.62-27.38,22.68,15.78,52.75,30.06,90.22,42.9,37.46,12.81,77.39,19.22,119.79,19.22,62.1,0,110.17-12.57,144.2-37.71,34-25.14,51.02-65.81,51.02-122.01v-76.91ZM2505.52,4040.38c33.52,0,61.62-4.92,84.29-14.79,22.68-9.85,41.91-21.69,57.69-35.5v-357.89c-14.8-8.86-33.05-17-54.74-24.4-21.69-7.38-47.31-11.09-76.89-11.09-60.16,0-108.46,18.25-144.93,54.74-36.49,36.49-54.72,91.69-54.72,165.63,0,40.43,4.92,74.94,14.79,103.53,9.85,28.6,23.16,51.76,39.93,69.5,16.75,17.76,36.72,30.56,59.89,38.45s48.07,11.83,74.69,11.83Z"/>
    <path class="cls-2" d="M3454.91,4120.24c-18.73,11.83-41.66,21.69-68.77,29.57-27.12,7.89-59.42,11.83-96.88,11.83-43.37,0-84.54-6.16-123.48-18.48-38.94-12.32-73.21-32.04-102.79-59.17-29.57-27.11-52.99-62.35-70.24-105.74-17.25-43.37-25.88-96.61-25.88-159.72,0-57.17,8.63-107.2,25.88-150.1,17.25-42.88,41.41-78.87,72.46-107.96s68.03-51.02,110.93-65.81c42.88-14.79,90.45-22.19,142.72-22.19,48.31,0,92.9,6.18,133.82,18.5s74.19,26.87,99.83,43.62c16.75,10.84,29.83,23.18,39.19,36.98,9.37,13.8,14.05,30.56,14.05,50.27v582.69c0,49.3-8.63,91.69-25.88,127.19-17.25,35.48-40.9,64.32-70.98,86.52-30.08,22.17-65.81,38.44-107.22,48.81-41.43,10.34-85.79,15.53-133.1,15.53-50.29,0-93.67-4.93-130.15-14.79-36.49-9.89-63.11-19.74-79.86-29.59-30.56-18.73-45.84-43.39-45.84-73.93,0-16.77,3.44-30.82,10.34-42.15,6.9-11.36,15.78-20.48,26.62-27.38,22.68,15.78,52.75,30.06,90.22,42.9,37.46,12.81,77.39,19.22,119.79,19.22,62.1,0,110.17-12.57,144.2-37.71,34-25.14,51.02-65.81,51.02-122.01v-76.91ZM3311.45,4040.38c33.52,0,61.62-4.92,84.29-14.79,22.68-9.85,41.91-21.69,57.69-35.5v-357.89c-14.8-8.86-33.05-17-54.74-24.4-21.69-7.38-47.31-11.09-76.89-11.09-60.16,0-108.46,18.25-144.93,54.74-36.49,36.49-54.72,91.69-54.72,165.63,0,40.43,4.92,74.94,14.79,103.53,9.85,28.6,23.16,51.76,39.93,69.5,16.75,17.76,36.72,30.56,59.89,38.45s48.07,11.83,74.69,11.83Z"/>
    <path class="cls-2" d="M3902.94,4194.19c-28.6,0-49.8-5.44-63.6-16.26-13.8-10.84-20.69-29.09-20.69-54.74v-897.7c6.88-1.96,16.73-4.43,29.56-7.38,12.82-2.95,26.62-4.45,41.43-4.45,28.58,0,49.78,5.44,63.58,16.28,13.8,10.84,20.71,29.09,20.71,54.72v897.7c-7.89,2.95-17.99,5.66-30.31,8.14-12.32,2.45-25.88,3.69-40.67,3.69Z"/>
    <path class="cls-2" d="M4306.65,3917.64c13.8,56.19,40.65,97.85,80.58,124.96,39.93,27.12,90.95,40.67,153.07,40.67,41.41,0,79.37-6.39,113.88-19.22s62.1-26.62,82.81-41.41c27.61,15.78,41.43,37.95,41.43,66.55,0,16.77-6.41,32.29-19.24,46.59-12.82,14.3-30.31,26.62-52.5,36.96-22.19,10.36-48.31,18.48-78.38,24.4-30.08,5.91-62.35,8.88-96.86,8.88-57.2,0-109.2-7.89-156.03-23.67-46.83-15.78-87.01-39.43-120.53-70.98-33.54-31.56-59.42-70.49-77.64-116.84-18.25-46.34-27.36-100.09-27.36-161.22s8.86-111.15,26.62-156.01c17.74-44.87,41.89-82.33,72.46-112.41,30.56-30.06,66.55-52.99,107.96-68.77s85.79-23.67,133.12-23.67,90.45,7.65,129.39,22.93c38.94,15.27,72.48,36.47,100.57,63.6,28.1,27.12,49.78,59.4,65.07,96.86,15.27,37.46,22.93,78.38,22.93,122.74,0,24.66-5.93,42.65-17.76,54-11.83,11.35-29.09,18.98-51.75,22.91l-431.85,62.12ZM4490.04,3592.27c-54.23,0-99.35,18.25-135.33,54.72-35.99,36.49-54.97,88.74-56.93,156.77l363.82-51.76c-3.96-44.36-20.23-82.08-48.81-113.13-28.6-31.05-69.5-46.59-122.74-46.59Z"/>
  </g>
</svg>